#N canvas 342 213 1193 820 10;
#X floatatom 70 222 5 0 0 0 - - - 0;
#X floatatom 120 220 5 0 0 0 - - - 0;
#X msg 70 247 az \$1;
#X msg 120 245 el \$1;
#X obj 75 299 phasor~ 1;
#X obj 150 299 phasor~ 1;
#X obj 17 390 dac~ 1 2 3 4 5 6 7 8;
#X text 151 331 arg: order (1 to 3);
#X text 151 363 arg: decoder (mono \, stereo \, quad \, pent \, hex
\, oct \, cube);
#X text 165 244 az and el: 0 to 1;
#X text 17 18 grambi~ v1 (2016) for Pd written by Ricky Graham <ricky@rickygraham.net>"
;
#X obj 163 71 noise~;
#X obj 206 98 phasor~ 0.1;
#X obj 17 363 grambidec~ cube ****;
#X obj 17 332 grambipan~ 1 *******;
#X obj 163 181 dac~ 1 2 3 4;
#X obj 163 121 grambipan~ 1 **;
#X obj 17 253 *~ 0;
#X obj 163 91 *~ 0;
#X obj 63 99 phasor~ 0.1;
#X obj 14 93 *~ 1;
#X obj 14 154 grambidec~ stereo;
#X obj 14 183 dac~ 1 2;
#X obj 14 123 grambipan~ 1 ****;
#X obj 17 222 noise~;
#X obj 163 152 grambidec~ quad;
#X obj 14 73 noise~;
#X obj 400 119 grambipan~ 3;
#X obj 400 163 grambidec~ oct;
#X obj 401 209 dac~ 1 2 3 4 5 6 7 8;
#X obj 403 58 noise~;
#X obj 446 85 phasor~ 0.1;
#X obj 403 78 *~ 0;
#X connect 0 0 2 0;
#X connect 1 0 3 0;
#X connect 2 0 14 0;
#X connect 3 0 14 0;
#X connect 4 0 14 1;
#X connect 5 0 14 2;
#X connect 11 0 18 0;
#X connect 12 0 16 1;
#X connect 13 0 6 0;
#X connect 13 1 6 1;
#X connect 13 2 6 2;
#X connect 13 3 6 3;
#X connect 13 4 6 4;
#X connect 13 5 6 5;
#X connect 13 6 6 6;
#X connect 13 7 6 7;
#X connect 14 0 13 0;
#X connect 14 1 13 1;
#X connect 14 2 13 2;
#X connect 14 3 13 3;
#X connect 16 0 25 0;
#X connect 16 1 25 1;
#X connect 16 2 25 2;
#X connect 16 3 25 3;
#X connect 17 0 14 0;
#X connect 18 0 16 0;
#X connect 19 0 23 1;
#X connect 20 0 23 0;
#X connect 21 0 22 0;
#X connect 21 1 22 1;
#X connect 23 0 21 0;
#X connect 23 1 21 1;
#X connect 23 2 21 2;
#X connect 23 3 21 3;
#X connect 24 0 17 0;
#X connect 25 0 15 0;
#X connect 25 1 15 1;
#X connect 25 2 15 2;
#X connect 25 3 15 3;
#X connect 26 0 20 0;
#X connect 27 0 28 0;
#X connect 27 1 28 1;
#X connect 27 2 28 2;
#X connect 27 3 28 3;
#X connect 27 4 28 4;
#X connect 27 5 28 5;
#X connect 27 6 28 6;
#X connect 28 0 29 0;
#X connect 28 1 29 1;
#X connect 28 2 29 2;
#X connect 28 3 29 3;
#X connect 28 4 29 4;
#X connect 28 5 29 5;
#X connect 28 6 29 6;
#X connect 28 7 29 7;
#X connect 30 0 32 0;
#X connect 31 0 27 1;
#X connect 32 0 27 0;
