#N canvas 584 261 1078 618 10;
#X obj 76 244 dac~ 1 2;
#X text 470 260 rg '17;
#X floatatom 349 169 5 0 0 0 - - - 0;
#X obj 76 112 *~;
#X obj 91 89 tgl 15 0 empty empty empty 17 7 0 10 #fcfcfc #000000 #000000
0 1;
#X floatatom 349 107 5 0 0 0 - - - 0;
#X floatatom 139 187 10 0 0 0 - - - 0;
#X msg 16 126 clear;
#X obj 76 143 gramulator~;
#X text 348 86 v pitch relative to window;
#X msg 18 80 sample;
#X obj 76 34 adc~ 1;
#X text 38 12 gramulator~ v1 - sample;
#X text 151 54 v speed / pos in array;
#X text 388 107 < block of 4096;
#X floatatom 139 38 5 0 0 0 - - - 0;
#X obj 139 76 phasor~ 0.25;
#X text 158 99 < try;
#X text 221 36 Can you change grain size without changing pitch?;
#X obj 76 61 *~ 4;
#X obj 349 126 phasor~ 10.77;
#X obj 114 219 *~ 10;
#X obj 52 213 *~ 10;
#X obj 159 165 snapshot~;
#X obj 349 149 snapshot~;
#X obj 240 101 metro 50;
#X obj 252 76 tgl 15 0 empty empty empty 17 7 0 10 #fcfcfc #000000
#000000 0 1;
#X connect 3 0 8 0;
#X connect 4 0 3 1;
#X connect 5 0 20 0;
#X connect 7 0 8 0;
#X connect 8 0 22 0;
#X connect 8 1 21 0;
#X connect 8 2 23 0;
#X connect 10 0 8 0;
#X connect 11 0 19 0;
#X connect 15 0 16 0;
#X connect 16 0 8 1;
#X connect 19 0 3 0;
#X connect 20 0 8 2;
#X connect 20 0 24 0;
#X connect 21 0 0 1;
#X connect 22 0 0 0;
#X connect 23 0 6 0;
#X connect 24 0 2 0;
#X connect 25 0 23 0;
#X connect 25 0 24 0;
#X connect 26 0 25 0;
